
<!-- Generator: visioncortex VTracer 0.6.4 -->
<svg version="1.1" xmlns="http://www.w3.org/2000/svg" viewBox="10 10 470 470" preserveAspectRatio="xMidYMid meet">
<path d="M0,0 L17,0 L33,4 L49,12 L61,23 L68,31 L75,45 L79,59 L79,83 L75,98 L67,113 L55,126 L45,133 L32,139 L25,141 L24,157 L68,157 L76,161 L79,166 L79,335 L74,340 L56,354 L40,366 L25,377 L24,389 L20,398 L12,405 L-16,421 L-40,435 L-68,451 L-92,465 L-118,480 L-144,495 L-167,508 L-172,510 L-182,510 L-198,502 L-224,487 L-250,472 L-276,457 L-302,442 L-328,427 L-354,412 L-369,403 L-376,395 L-378,389 L-379,377 L-398,363 L-416,349 L-432,337 L-433,335 L-433,166 L-429,160 L-422,157 L-378,157 L-378,124 L-374,115 L-366,108 L-338,92 L-312,77 L-286,62 L-260,47 L-234,32 L-210,18 L-187,5 L-182,3 L-172,3 L-156,11 L-130,26 L-104,41 L-78,56 L-64,64 L-58,43 L-53,35 L-49,33 L-43,34 L-41,30 L-36,25 L-36,16 L-31,11 L-17,4 L-6,1 Z " fill="#020201" transform="translate(433,1)"/>
<path d="M0,0 L482,0 L482,151 L95,152 L92,156 L93,164 L96,165 L233,166 L233,317 L229,316 L219,310 L208,304 L194,296 L181,288 L170,282 L156,274 L142,266 L129,258 L118,252 L104,244 L92,237 L78,229 L64,221 L56,215 L56,166 L72,165 L76,161 L76,155 L72,152 L0,151 Z " fill="#6BE599" transform="translate(15,174)"/>
<path d="M0,0 L14,0 L16,6 L19,7 L156,8 L156,159 L152,158 L142,152 L131,146 L117,138 L104,130 L93,124 L79,116 L65,108 L52,100 L41,94 L27,86 L15,79 L1,71 L-13,63 L-21,57 L-21,8 L-5,7 L-1,3 Z " fill="#FEAA55" transform="translate(92,332)"/>
<path d="M0,0 L177,0 L177,49 L172,53 L146,68 L144,68 L143,19 L142,16 L133,16 L115,26 L104,33 L103,38 L105,43 L112,44 L127,36 L129,36 L129,77 L120,83 L94,98 L68,113 L44,127 L43,127 L43,85 L52,79 L80,63 L89,57 L90,51 L88,47 L81,46 L56,60 L39,70 L30,76 L29,78 L28,136 L4,150 L0,152 Z " fill="#FEAA55" transform="translate(264,340)"/>
<path d="M0,0 L7,0 L32,14 L49,24 L75,39 L101,54 L120,65 L126,83 L134,96 L142,105 L155,114 L157,116 L129,132 L118,139 L96,139 L82,131 L68,123 L55,115 L44,109 L30,101 L16,93 L3,85 L-8,79 L-22,71 L-34,64 L-48,56 L-62,48 L-70,43 L-69,40 L-59,34 L-48,28 L-34,20 L-21,12 L-10,6 Z " fill="#FDAA55" transform="translate(252,20)"/>
<path d="M0,0 L5,1 L31,16 L55,30 L81,45 L107,60 L135,76 L154,87 L154,88 L-22,88 L-31,82 L-42,76 L-56,68 L-68,61 L-82,53 L-85,50 L-82,47 L-71,41 L-61,35 L-50,29 L-36,21 L-23,13 L-12,7 Z " fill="#FDA955" transform="translate(164,71)"/>
<path d="M0,0 L22,0 L37,6 L47,13 L54,20 L62,33 L66,50 L66,60 L63,74 L56,88 L47,98 L36,105 L26,109 L19,111 L4,111 L-12,107 L-24,100 L-35,89 L-41,78 L-45,65 L-45,43 L-40,30 L-39,28 L-39,22 L-42,18 L-35,10 L-32,8 L-30,10 L-23,10 L-13,4 Z " fill="#6BE599" transform="translate(431,17)"/>
<path d="M0,0 L15,0 L25,4 L34,11 L41,21 L44,29 L44,44 L40,55 L36,61 L29,68 L19,73 L14,75 L1,75 L-9,72 L-19,65 L-26,57 L-30,48 L-31,43 L-31,33 L-28,22 L-22,13 L-15,6 L-5,1 Z " fill="#010302" transform="translate(289,212)"/>
<path d="M0,0 L2,0 L2,41 L-7,47 L-33,62 L-59,77 L-83,91 L-84,91 L-84,49 L-75,43 L-47,27 L-38,21 L-37,15 L-36,12 L-26,6 L-24,2 L-22,7 L-15,8 Z " fill="#6B5D68" transform="translate(391,376)"/>
<path d="M0,0 L6,0 L11,4 L26,26 L37,42 L38,3 L42,0 L48,0 L53,5 L53,69 L48,74 L41,74 L35,67 L22,48 L12,34 L11,70 L6,75 L-1,74 L-4,70 L-4,5 Z " fill="#010201" transform="translate(81,212)"/>
<path d="M0,0 L17,0 L17,151 L0,151 Z " fill="#00D7A1" transform="translate(480,174)"/>
<path d="M0,0 L6,2 L16,9 L23,16 L31,29 L35,46 L35,56 L32,70 L25,84 L16,94 L5,101 L-5,105 L-12,107 L-27,107 L-43,103 L-42,101 L-29,98 L-15,91 L-7,84 L-5,84 L-3,80 L4,71 L10,57 L12,47 L12,30 L8,15 L1,2 Z " fill="#00D6A1" transform="translate(462,21)"/>
<path d="M0,0 L14,0 L28,7 L31,11 L30,18 L26,21 L20,21 L16,18 L12,16 L3,16 L-1,18 L-2,24 L4,26 L23,34 L30,41 L33,47 L33,57 L29,65 L21,72 L13,75 L2,75 L-8,72 L-17,66 L-21,61 L-21,55 L-17,51 L-11,51 L-1,58 L2,59 L10,59 L16,56 L17,50 L12,46 L-4,40 L-12,35 L-16,30 L-18,24 L-18,17 L-14,9 L-6,2 Z " fill="#020402" transform="translate(174,212)"/>
<path d="M0,0 L6,0 L11,5 L12,19 L27,5 L32,1 L39,1 L43,5 L42,13 L27,27 L18,35 L20,39 L45,64 L45,70 L40,75 L33,74 L17,58 L12,54 L11,70 L8,74 L1,75 L-4,70 L-4,4 Z " fill="#010302" transform="translate(415,212)"/>
<path d="M0,0 L14,0 L25,4 L30,8 L31,15 L26,20 L20,20 L13,16 L2,16 L-6,19 L-13,27 L-15,33 L-15,43 L-10,52 L-5,56 L2,59 L11,59 L17,56 L22,52 L27,51 L32,54 L33,61 L29,67 L19,73 L13,75 L1,75 L-9,72 L-18,66 L-26,57 L-31,44 L-31,31 L-27,19 L-20,10 L-12,4 L-5,1 Z " fill="#020402" transform="translate(372,212)"/>
<path d="M0,0 L11,0 L19,3 L24,7 L28,13 L29,18 L29,29 L24,37 L17,43 L12,45 L2,45 L-8,40 L-13,34 L-16,27 L-16,17 L-12,9 L-4,2 Z " fill="#6AE498" transform="translate(289,227)"/>
<path d="M0,0 L40,0 L44,4 L44,10 L39,15 L28,15 L28,69 L23,75 L17,75 L13,71 L13,15 L1,15 L-4,10 L-4,4 Z " fill="#020403" transform="translate(216,212)"/>
<path d="M0,0 L7,0 L11,3 L11,11 L0,23 L-12,36 L-23,48 L-30,49 L-40,40 L-50,29 L-51,22 L-46,17 L-41,17 L-31,26 L-27,29 L-18,20 L-11,12 Z " fill="#020503" transform="translate(461,48)"/>
<path d="M0,0 L5,1 L11,4 L25,12 L37,19 L51,27 L64,35 L66,37 L66,44 L62,48 L55,48 L31,34 L5,19 L-4,13 L-6,10 L-5,4 Z " fill="#040302" transform="translate(158,393)"/>
<path d="M0,0 L6,0 L11,5 L11,70 L8,74 L1,75 L-4,70 L-4,4 Z " fill="#020302" transform="translate(56,212)"/>
<path d="M0,0 L2,0 L2,41 L-7,47 L-12,49 L-13,7 Z M-13,49 Z " fill="#564C55" transform="translate(391,376)"/>
<path d="M0,0 L14,8 L39,22 L42,25 L0,25 L-1,24 L-1,1 Z " fill="#EF902B" transform="translate(71,134)"/>
<path d="M0,0 L14,1 L15,2 L15,16 L14,17 L-28,17 L-23,13 Z " fill="#F1912B" transform="translate(427,142)"/>
<path d="M0,0 L25,0 L20,5 L3,18 L0,19 Z " fill="#05BB99" transform="translate(456,340)"/>
<path d="M0,0 L25,0 L25,19 L21,17 L0,1 Z " fill="#05BB99" transform="translate(31,340)"/>
</svg>